<?xml version="1.0"?>
<svg width="640" height="480" xmlns="http://www.w3.org/2000/svg" xmlns:svg="http://www.w3.org/2000/svg">
 <!-- Created with SVG-edit - https://github.com/SVG-Edit/svgedit-->
 <g class="layer">
  <title>Layer 1</title>
  <rect fill="#007f7f" height="112.000001" id="svg_2" stroke="#000000" stroke-opacity="0" stroke-width="5" width="152.999997" x="11.5" y="10.5"/>
  <rect fill="#007f7f" height="0" id="svg_1" opacity="0.5" stroke="#000000" stroke-width="5" width="0" x="115.5" y="137.5"/>
  <rect fill="#007f7f" height="0" id="svg_4" opacity="0.5" stroke="#000000" stroke-width="5" width="0" x="246.5" y="195.5"/>
  <rect fill="#007f7f" height="0" id="svg_5" opacity="0.5" stroke="#000000" stroke-width="5" width="0" x="170.5" y="320.5"/>
  <rect fill="#007f7f" height="0" id="svg_6" opacity="0.5" stroke="#000000" stroke-width="5" width="0" x="170.5" y="320.5"/>
  <ellipse cx="69.5" cy="158.5" fill="#007f7f" id="svg_7" opacity="0.5" rx="0" ry="0" stroke="#000000" stroke-width="5"/>
  <rect fill="#007f7f" height="0" id="svg_8" opacity="0.5" stroke="#000000" stroke-width="5" width="0" x="115.5" y="109.5"/>
  <rect fill="#007f7f" height="0" id="svg_9" opacity="0.5" stroke="#000000" stroke-width="5" width="0" x="115.5" y="109.5"/>
  <rect fill="#008c8c" height="0" id="svg_10" opacity="0.5" stroke="#000000" stroke-width="5" width="0" x="143.5" y="213.5"/>
  <ellipse cx="-39.5" cy="84.5" fill="#008c8c" id="svg_11" opacity="0.5" rx="0" ry="0" stroke="#000000" stroke-width="5"/>
  <ellipse cx="189.5" cy="272.5" fill="#008c8c" id="svg_12" opacity="0.5" rx="0" ry="0" stroke="#000000" stroke-width="5"/>
  <ellipse cx="541.5" cy="386.5" fill="#008c8c" id="svg_13" opacity="0.5" rx="0" ry="0" stroke="#000000" stroke-width="4"/>
  <ellipse cx="123.5" cy="173.5" fill="#008c8c" id="svg_14" opacity="0.5" rx="0" ry="0" stroke="#000000" stroke-width="6"/>
  <ellipse cx="100.5" cy="318.5" fill="#008c8c" id="svg_15" opacity="0.5" rx="0" ry="0" stroke="#000000" stroke-width="3"/>
  <ellipse cx="115.5" cy="297.5" fill="#008c8c" id="svg_16" opacity="0.5" rx="0" ry="0" stroke="#000000" stroke-width="3"/>
  <ellipse cx="115.5" cy="297.5" fill="#008c8c" id="svg_17" opacity="0.5" rx="0" ry="0" stroke="#000000" stroke-width="3"/>
  <rect fill="#008c8c" height="0" id="svg_18" opacity="0.5" stroke="#000000" stroke-width="3" width="0" x="92.5" y="170.5"/>
  <rect fill="#008c8c" height="0" id="svg_19" opacity="0.5" stroke="#000000" stroke-width="3" width="0" x="118.5" y="78.5"/>
  <rect fill="#bf0000" height="0" id="svg_20" opacity="0.5" stroke="#000000" stroke-width="3" width="0" x="91.5" y="113.5"/>
  <text fill="#000000" font-family="serif" font-size="24" id="svg_3" stroke="#000000" stroke-dasharray="null" stroke-linecap="null" stroke-linejoin="null" stroke-opacity="0" stroke-width="0" text-anchor="middle" transform="matrix(2.40738 0 0 3.07692 -325.352 -358.269)" x="171.213429" xml:space="preserve" y="142.150001">GJAR</text>
  <text fill="#000000" font-family="serif" font-size="24" id="svg_22" stroke="#000000" stroke-dasharray="null" stroke-linecap="null" stroke-linejoin="null" stroke-opacity="0" stroke-width="0" text-anchor="middle" x="87.5" xml:space="preserve" y="108.5">Hoja de Vida</text>
 </g>
</svg>